<svg id="Layer_1" data-name="Layer 1" xmlns="http://www.w3.org/2000/svg" viewBox="0 0 713.04 733.68"><defs><style>.cls-1{fill:#aaa9a9;}.cls-2{fill:#fff;}</style></defs><path class="cls-1" d="M359,.42c-3.06.07-6.14.39-9.16-.42h9.12C358.93.14,359,.28,359,.42Z"/><path class="cls-2" d="M659.34,383.42a57.4,57.4,0,0,1-1.17-9.49c-.43-5.26-.74-10.54-1.07-15.81-.79-12.69-3.22-25.1-6.24-37.4-14.76-60.07-44.78-111.25-90.35-153-40.83-37.44-88.68-61.56-142.92-72.87a311.27,311.27,0,0,0-82.72-5.39c-57,4.2-109.18,22.38-155.42,56.17C118.12,190.42,79.12,250.26,61.5,324.09a248.07,248.07,0,0,0-6.26,43.14c-.26,4.47-.79,8.93-1.2,13.4a3.11,3.11,0,0,1-.76,2A14.33,14.33,0,0,1,49,378.56a152.12,152.12,0,0,1-14.67-22.89C28.82,345.16,24.67,334,20,323.15c-1.27-2.91-.89-5.87-.27-8.81,2-9.28,5-18.25,7.78-27.3C29.62,280,31.91,273,34.14,266c.87-2.73.87-2.74-1.33-4.4-3.92-2.94-8.14-5.41-12.29-8a104,104,0,0,1-12.06-8.3,31.08,31.08,0,0,1-5.55-5.85,15,15,0,0,1-1.85-14.5,39.17,39.17,0,0,1,3.19-6.42l27.06-46.89c.6-1,1.21-2.06,1.87-3.06,4.5-6.77,9.75-8.86,17.76-7.14a61.44,61.44,0,0,1,14.26,5.28c5.54,2.75,11,5.67,16.5,8.46,3.34,1.69,3.38,1.65,5.89-1.13,4.75-5.25,9.64-10.38,14.22-15.79,8.8-10.39,19-19.3,29.08-28.41,3.11-2.81,6.23-5.61,9.31-8.44,2-1.88,2-1.47.79-3.93-3.18-6.32-6.38-12.63-9.52-19a56.76,56.76,0,0,1-5.1-13.68c-1.21-5.94.39-10.82,5-14.72a40.62,40.62,0,0,1,5.61-4q22.61-13.18,45.23-26.34a42.52,42.52,0,0,1,10.4-4.5,13.33,13.33,0,0,1,11.89,2.26,35.84,35.84,0,0,1,6.53,6.55,180.77,180.77,0,0,1,11.42,16.82c1.54,2.44,3.29,4.76,4.84,7.19a2.85,2.85,0,0,0,3.83,1.23c2.53-.91,5.11-1.7,7.61-2.67C254.6,60.48,271,56.25,287.6,52.83c5.56-1.15,11.16-2.13,16.76-3.08,1.61-.27,2.33-.83,2.5-2.6.54-5.76.79-11.54,1-17.32.13-4,.25-8,.67-11.94C309.69,6.7,315.4,1,326.61.15,328.69,0,330.79,0,332.89,0c11.17,0,22.34,0,33.52,0,5.28,0,10.56-.25,15.85-.32a37.09,37.09,0,0,1,8.9.93A15.07,15.07,0,0,1,402.7,11.15c1.91,5.75,2.36,11.71,2.71,17.68.33,5.57,0,11.17.58,16.74.35,3.51.82,4.07,4.26,4.57a287,287,0,0,1,60.41,15.4c3.73,1.41,7.52,2.63,11.33,3.81,2.35.73,2.36.61,3.77-1.55q6.57-10,13.17-20a44.58,44.58,0,0,1,6.84-8.29c5.28-4.92,11.27-6.1,18-3.32a44.07,44.07,0,0,1,4.81,2.41Q552.26,52.26,576,66a47.77,47.77,0,0,1,4.73,3.13c5.33,4,7.1,9.41,5.92,15.87a43.64,43.64,0,0,1-4.19,11.79c-2.11,4.18-4.37,8.29-6.59,12.42a69.26,69.26,0,0,0-4.29,9.2,2.52,2.52,0,0,0,1,3.3,338.7,338.7,0,0,1,53.64,53.61,2.38,2.38,0,0,0,3.25.86,78.08,78.08,0,0,0,8.38-3.95c4.93-2.62,9.75-5.45,14.84-7.74a40,40,0,0,1,11.39-3.5,14.85,14.85,0,0,1,14.12,5.4,39.3,39.3,0,0,1,4.18,6.19c7.7,13.85,15.67,27.56,23.79,41.17a87.39,87.39,0,0,1,5.49,10.62c2.78,6.58,1.44,12.24-3.46,17.25a59.6,59.6,0,0,1-9,7.43c-6.49,4.47-12.95,9-19.7,13.05-1.33.81-1.92,1.58-1.2,3.09.33.71.43,1.54.72,2.27,5.36,13.36,8.66,27.35,12.7,41.11a70.73,70.73,0,0,1,2,8.11,11.34,11.34,0,0,1-.67,6.74c-4.19,9.26-7.76,18.79-12.18,28a144.9,144.9,0,0,1-20.51,31.14A13.22,13.22,0,0,1,659.34,383.42Z"/><path class="cls-2" d="M541.65,175.15a28.89,28.89,0,0,1,6,4.4,292.56,292.56,0,0,1,43.74,50.21,277.41,277.41,0,0,1,45.32,108.41,264.33,264.33,0,0,1,4.21,40.38c.31,9.67.27,19.35.63,29,.25,6.86.25,13.75,1.12,20.57,1,.29,1.48-.53,2-1,2.46-2.35,4.68-4.91,6.9-7.48,6.06-7,12.08-14.08,18.31-20.95,8.36-9.22,15-19.63,21.37-30.24,1.73-2.88,3.55-5.72,5.56-8.95a31.33,31.33,0,0,1,2,9c1.87,15.51,1.36,31,.22,46.57a332.9,332.9,0,0,1-5,39.71,357.1,357.1,0,0,1-23.1,75c-1,2.19-2.15,4.27-3.17,6.44a4,4,0,0,1-3.69,2.53c-2.69.13-5.37.48-8.06.55-14.31.37-28.35,2.67-42.27,5.82-27.42,6.19-53.72,15.66-79.37,27.08a439.53,439.53,0,0,0-70.72,39.35,316.53,316.53,0,0,0-27.54,21.58c-1.06.91-2.14,1.8-3.27,2.6-1.5,1.07-1.76,1-2.19-.74-.84-3.38-1.7-6.77-2.31-10.19a328.89,328.89,0,0,1-4.47-45.18,233.47,233.47,0,0,1,1-32c1.23-12.5,3.94-24.76,6.7-37,5.29-23.48,14.89-45.18,26.6-66,11.42-20.36,24.3-39.83,36.66-59.61,10.83-17.34,21.28-34.9,30.1-53.38,8.14-17.05,14.89-34.59,18.56-53.2a237.65,237.65,0,0,0,4-32.9c.57-10.08.12-20.13-.31-30.19-.45-10.48-2.3-20.78-4.31-31A66.45,66.45,0,0,1,541.65,175.15Z"/><path class="cls-2" d="M171,176a57.16,57.16,0,0,1-1.56,12.5,229,229,0,0,0-4.46,54.72,212.58,212.58,0,0,0,12.18,62.26c7.18,20.4,16.92,39.57,27.83,58.19,10.23,17.47,21.53,34.27,32.27,51.43s20.9,34.67,29.22,53.17a252.66,252.66,0,0,1,19.82,66.55,268.24,268.24,0,0,1,2.12,57,275.83,275.83,0,0,1-6.21,43.76,4.87,4.87,0,0,1-.2.57c-.8.4-1.31-.22-1.83-.6-1.28-.95-2.58-1.9-3.76-3-18-16.28-38.09-29.6-59.51-40.92-19-10-38-19.88-57.85-28A357,357,0,0,0,83.59,542c-7.67-1.3-15.43-1.9-23.18-2.51-3.68-.29-7.35-.61-11-.73A4.43,4.43,0,0,1,45.21,536a217.09,217.09,0,0,1-9.34-22A331.28,331.28,0,0,1,18.53,452.5q-2.78-15.9-4-32a305.46,305.46,0,0,1-.39-41.26c.36-6.16.75-12.33,1.73-18.64a6.55,6.55,0,0,1,2.84,3c1.76,2.9,3.52,5.8,5.13,8.78a118.53,118.53,0,0,0,17.59,24.47Q54.93,411.48,68.49,426c.46.49.81,1.16,1.7,1.31.8-1.09.6-2.41.68-3.65.69-12,.53-23.93.67-35.9a280.77,280.77,0,0,1,15.82-90.61,285.79,285.79,0,0,1,55.76-94.81c5.48-6.21,11-12.37,17-18.14a72.73,72.73,0,0,1,7.46-6.46A8.59,8.59,0,0,1,171,176Z"/><path class="cls-2" d="M56.15,556.72a107.08,107.08,0,0,1,19.11,1.58c41.49,6.6,80.31,20.85,117.16,40.81,25.56,13.84,50.12,29.24,73,47.19,5.57,4.37,11,8.92,16.22,13.71a47.06,47.06,0,0,0,6.28,5.07c1.64,1.06,1.73,1,2.78-.63a102,102,0,0,0,7.61-15.22c6.06-14.7,10.25-30,13.8-45.43a428.89,428.89,0,0,0,8.21-48c1.12-9.91,2-19.84,2.63-29.79,1-14.43,2-28.85,2.69-43.29.25-5.19.34-10.37.23-15.56a4.52,4.52,0,0,0-1.66-3.91c-1.73-1.39-1.44-2.51.58-3.7A24,24,0,0,1,333,456.9a142.61,142.61,0,0,1,33.09-1.51,100.15,100.15,0,0,1,16,2,20.85,20.85,0,0,1,6.17,2.19c1.9,1.12,2.24,2.17.61,3.47-2.08,1.64-2.1,3.66-2.08,5.87.1,10.58,1,21.12,1.61,31.67.39,7.37.95,14.73,1.4,22.09,1,15.63,2.58,31.19,4.77,46.69A407.45,407.45,0,0,0,403.75,616a253.65,253.65,0,0,0,14.92,41.6,52.68,52.68,0,0,0,4,7.33c.55.82,1.08,1.07,1.92.34,1.05-.92,2.17-1.74,3.24-2.64A581.89,581.89,0,0,1,490,617c27.78-17.63,56.8-32.75,87.88-43.75a328.84,328.84,0,0,1,55.86-14.11,145.84,145.84,0,0,1,19-2.35,14.17,14.17,0,0,1,3.94.15c.1,1.29-.73,2.24-1.28,3.25-6,11-13,21.24-20.2,31.44-1.09,1.55-2.29,3-3.31,4.62a5.55,5.55,0,0,1-4.42,2.64c-6.14.67-12.29,1.25-18.42,2.08a350.14,350.14,0,0,0-68.74,16.61c-35.72,12.47-68.76,30.16-100,51.36-.57.39-1.1.84-1.81,1.39a7.2,7.2,0,0,0,3.27-.92c14.88-5.72,29.5-12.11,44.68-17,21.74-7.07,43.73-13.07,66.27-16.91a242.31,242.31,0,0,1,44.34-3.83c1,0,1.91.09,3.16.14a12,12,0,0,1-3.07,4.27A159.83,159.83,0,0,1,584,648.22c-10.17,8.68-20.73,16.87-31.53,24.75a13.43,13.43,0,0,1-9.46,2.88c-3.77-.34-7.55-.6-11.35-.62A221.1,221.1,0,0,0,470,683.94a188.58,188.58,0,0,0-21.28,7,22.32,22.32,0,0,0-6.1,3.28,27.12,27.12,0,0,0,5,6.4c4.17,4.29,8.64,8.28,13.17,12.2a11.52,11.52,0,0,1,3.35,3.67c-.37.93-1.21.73-1.81.89-10.11,2.68-20,6.18-30.21,8.45a336.61,336.61,0,0,1-85.53,8,356.85,356.85,0,0,1-87.82-13.58,61.81,61.81,0,0,1-8.16-2.9c-1.65-.74-1.76-1.32-.54-2.61a13.74,13.74,0,0,1,1.63-1.31A111,111,0,0,0,268.55,697c2.43-2.9,2.38-3.1-1.17-4.74a131.54,131.54,0,0,0-18-6.37c-12-3.53-24-6.72-36.37-8.42-14.36-2-28.76-2.91-43.24-1.67a12.1,12.1,0,0,1-8.4-2.38c-8.67-6.23-17.15-12.7-25.39-19.49a287.15,287.15,0,0,1-21.69-20.16,3.63,3.63,0,0,1-1.31-2,122.72,122.72,0,0,1,12.51-.47c17.32.59,34.26,3.68,51.11,7.42a491.92,491.92,0,0,1,61.48,17.51c11.7,4.26,23.17,9.16,34.74,13.77.54.21,1,.67,1.9.33a8.43,8.43,0,0,0-2.4-2c-43.69-29.08-90.36-51.45-141.88-62.86-14.12-3.13-28.34-5.66-42.84-6.26A7.82,7.82,0,0,1,81.15,596c-8-11.19-16.21-22.25-22.87-34.33A19.12,19.12,0,0,1,56.15,556.72Z"/><path class="cls-2" d="M354,120.34q0,23,0,46c0,2-.15,4-.08,6a4.6,4.6,0,0,1-2.24,4.49c-3.31,2.19-4.2,5.37-3.11,9.17,1.14,4,4.31,6,9,5.67a7.61,7.61,0,0,0,7.22-6.77c.44-3.32-.34-6.16-3.31-8.08A4.12,4.12,0,0,1,359.2,173c.09-17.06.07-34.11.09-51.17,0-.54.08-1.08.12-1.61.75.06.75.56.87.88,6,15.73,12.15,31.41,18,47.2,3.16,8.53,5.28,17.33,5.19,26.56a47.06,47.06,0,0,1-12,31.13,13.58,13.58,0,0,0-3.69,10.48c1.08,18.51,1.9,37,2.79,55.57.51,10.86.94,21.72,1.47,32.58.89,18.32,1.84,36.65,2.73,55q1.06,21.82,2,43.63c.28,6.48.41,13,.56,19.44.06,2.63,0,2.72-2.64,2.55-4.78-.32-9.55-.68-14.31-1.14s-9.36.08-14,.45c-2.88.23-5.76.55-8.64.73-2.14.13-2.25.06-2.2-2.08.19-6.88.38-13.76.7-20.64.48-10.06,1.17-20.11,1.61-30.17.89-20.32,1.7-40.65,2.79-61,.56-10.46.94-20.92,1.45-31.38q1.33-27.64,2.73-55.28c.18-3.58.37-7.17.62-10.75a6.91,6.91,0,0,0-1.86-5.18,78.65,78.65,0,0,1-6.44-8.63c-7.71-12-9.33-25-6.18-38.74,2.07-9.08,5.44-17.7,8.89-26.31,3.75-9.34,7.39-18.72,10.55-28.28a25.14,25.14,0,0,1,2.94-6.69Z"/></svg>